# xmcd
#
# Track frame offsets: 
#        150
#        11259
#        23973
#        35266
#        47357
#        60761
#        74171
#        86481
#        100860
#        113177
#        126100
#        137274
#
# Disc length: 2004 seconds
#
# Revision: 2
# Processed by: cddbd v1.5.2PL0 Copyright (c) Steve Scherf et al.
# Submitted via: ExactAudioCopyFreeDBPlugin 1.0
#
DISCID=8d07d20c
DTITLE=Marvin Gaye_Tammi Terrell - Easy
DYEAR=1969
DGENRE=R&B
TTITLE0=Good Lovin Ain't Easy 2 Come By
TTITLE1=California Soul
TTITLE2=Love Woke Me Up This Morning
TTITLE3=This Poor Heart of Mine
TTITLE4=I'm Your Puppet
TTITLE5=The Onion Song
TTITLE6=What You Gave Me
TTITLE7=Baby I Need Your Loving
TTITLE8=I Can't Believe U Love Me
TTITLE9=How U Gonna Keep It
TTITLE10=More, More, More
TTITLE11=Satisfied Feeling
EXTD=
EXTT0=
EXTT1=
EXTT2=
EXTT3=
EXTT4=
EXTT5=
EXTT6=
EXTT7=
EXTT8=
EXTT9=
EXTT10=
EXTT11=
PLAYORDER=
